<?xml version="1.0" standalone="no"?>
<!DOCTYPE svg PUBLIC "-//W3C//DTD SVG 20010904//EN"
 "http://www.w3.org/TR/2001/REC-SVG-20010904/DTD/svg10.dtd">
<svg version="1.0" xmlns="http://www.w3.org/2000/svg"
 width="34.000000pt" height="34.000000pt"  viewBox="0 0 134.000000 222.000000"
 preserveAspectRatio="xMidYMid meet">

<g transform="translate(0.000000,222.000000) scale(0.100000,-0.100000)"
 stroke="none">
<path d="M638 1663 c-332 -333 -509 -517 -513 -535 -4 -15 -4 -37 0 -50 4 -13
235 -251 513 -530 451 -452 510 -508 538 -508 37 0 74 35 74 70 0 19 -113 138
-485 510 l-485 485 480 480 c264 264 483 491 487 503 9 36 -26 76 -68 80 -33
3 -54 -17 -541 -505z"/>
</g>
</svg>
