<?xml version="1.0" standalone="no"?>
<!DOCTYPE svg PUBLIC "-//W3C//DTD SVG 20010904//EN"
 "http://www.w3.org/TR/2001/REC-SVG-20010904/DTD/svg10.dtd">
<svg version="1.0" xmlns="http://www.w3.org/2000/svg"
 width="34.000000pt" height="34.000000pt" viewBox="0 0 134.000000 222.000000"
 preserveAspectRatio="xMidYMid meet">

<g transform="translate(0.000000,222.000000) scale(0.100000,-0.100000)"
fill="#000000" stroke="none">
<path d="M118 2177 c-63 -53 -86 -23 456 -566 273 -273 496 -503 496 -511 0
-8 -221 -236 -492 -507 -429 -429 -491 -495 -491 -521 0 -35 20 -58 58 -68 25
-6 61 28 542 507 283 283 521 527 530 543 35 67 44 57 -522 623 -288 287 -530
523 -537 523 -7 0 -25 -10 -40 -23z"/>
</g>
</svg>
